<svg width="1024" height="1024" viewBox="0 0 1024 1024" fill="none" xmlns="http://www.w3.org/2000/svg">
  <rect width="1024" height="1024" rx="256" fill="#EAF0FA"/>
  <path d="M512 128C352 128 256 224 256 384C256 504 352 640 512 640C672 640 768 504 768 384C768 224 672 128 512 128ZM512 608C384 608 288 480 288 384C288 288 384 160 512 160C640 160 736 288 736 384C736 480 640 608 512 608Z" fill="#001F54"/>
  <path d="M832 256C845.255 256 856 245.255 856 232C856 218.745 845.255 208 832 208C818.745 208 808 218.745 808 232C808 245.255 818.745 256 832 256Z" fill="#001F54"/>
  <path d="M512 288C456 288 400 352 400 416C400 480 456 544 512 544C568 544 624 480 624 416C624 352 568 288 512 288ZM512 512C456 512 416 480 416 416C416 352 456 320 512 320C568 320 608 352 608 416C608 480 568 512 512 512Z" fill="#001F54"/>
  <path d="M384 768C352 768 320 784 288 800V896C320 880 352 864 384 864C416 864 448 880 480 896V800C448 784 416 768 384 768Z" fill="#001F54"/>
  <path d="M640 768C608 768 576 784 544 800V896C576 880 608 864 640 864C672 864 704 880 736 896V800C704 784 672 768 640 768Z" fill="#001F54"/>
</svg>
